<svg width="168" height="24" viewBox="0 0 168 24" fill="none" xmlns="http://www.w3.org/2000/svg">
<path d="M79.424 0.14624V15.399H77.8804V3.1968L71.889 13.4604H71.1282L65.1295 3.26264V15.399H63.5859V0.14624H64.9174L71.5452 11.456L78.1072 0.14624H79.424Z" fill="#EAEAEA"/>
<path d="M93.9598 11.3243H85.4592L83.6303 15.399H81.9551L88.9267 0.14624H90.5142L97.4858 15.399H95.7887L93.9598 11.3243ZM93.3672 10.0148L89.7095 1.82149L86.0517 10.0148H93.3672Z" fill="#EAEAEA"/>
<path d="M110.434 15.399L106.944 10.4976C106.549 10.5415 106.147 10.5635 105.723 10.5635H101.626V15.399H100.017V0.14624H105.723C107.669 0.14624 109.198 0.614431 110.302 1.5435C111.407 2.47256 111.955 3.75277 111.955 5.37681C111.955 6.56923 111.656 7.57145 111.048 8.3981C110.448 9.21744 109.585 9.80999 108.466 10.1758L112.19 15.4063H110.434V15.399ZM109.146 8.18595C109.944 7.52024 110.346 6.58386 110.346 5.37681C110.346 4.14049 109.944 3.1968 109.146 2.53109C108.349 1.87269 107.193 1.53618 105.679 1.53618H101.626V9.18817H105.679C107.193 9.18817 108.349 8.85166 109.146 8.18595Z" fill="#EAEAEA"/>
<path d="M120.5 8.22985L117.384 11.3901V15.399H115.774V0.14624H117.384V9.36375L126.338 0.14624H128.189L121.583 7.05205L128.642 15.399H126.726L120.5 8.22985Z" fill="#EAEAEA"/>
<path d="M142.052 14.0018V15.399H131.269V0.14624H141.73V1.5435H132.885V6.96427H140.771V8.33958H132.885V14.0018H142.052Z" fill="#EAEAEA"/>
<path d="M148.804 1.5435H143.442V0.14624H155.776V1.5435H150.414V15.4063H148.804V1.5435Z" fill="#EAEAEA"/>
<path d="M159.061 14.9821C158.022 14.6163 157.217 14.1408 156.654 13.541L157.283 12.2973C157.832 12.846 158.57 13.2995 159.485 13.6361C160.399 13.9799 161.343 14.1481 162.316 14.1481C163.684 14.1481 164.708 13.8994 165.388 13.3946C166.069 12.8899 166.413 12.2461 166.413 11.4414C166.413 10.8342 166.23 10.3441 165.857 9.97832C165.484 9.61254 165.03 9.33455 164.496 9.13704C163.962 8.93952 163.208 8.72737 162.25 8.49327C161.102 8.20065 160.187 7.92267 159.507 7.65199C158.827 7.38132 158.241 6.97165 157.751 6.42299C157.261 5.87433 157.02 5.12084 157.02 4.17714C157.02 3.40901 157.224 2.70673 157.627 2.0776C158.036 1.44846 158.658 0.943697 159.5 0.563292C160.341 0.182887 161.387 0 162.638 0C163.508 0 164.364 0.117048 165.198 0.358459C166.032 0.599869 166.756 0.929066 167.364 1.35336L166.822 2.64089C166.186 2.21659 165.498 1.90202 164.774 1.68988C164.05 1.47773 163.333 1.37531 162.638 1.37531C161.299 1.37531 160.297 1.63135 159.617 2.15075C158.944 2.67015 158.607 3.32854 158.607 4.14788C158.607 4.75506 158.79 5.2452 159.163 5.61829C159.536 5.99138 159.997 6.26937 160.56 6.46688C161.116 6.6644 161.87 6.87655 162.813 7.11065C163.933 7.38864 164.84 7.65931 165.527 7.92998C166.215 8.20065 166.8 8.603 167.283 9.15167C167.766 9.69301 168 10.4319 168 11.3609C168 12.1291 167.795 12.8314 167.378 13.4605C166.961 14.0896 166.332 14.5944 165.469 14.9675C164.613 15.3406 163.56 15.5234 162.309 15.5234C161.182 15.5308 160.099 15.3479 159.061 14.9821Z" fill="#EAEAEA"/>
<path d="M56.7461 0.102417H60.2795V15.3771H56.7461V0.102417Z" fill="#EAEAEA"/>
<path d="M49.6361 0.102417V9.36381L42.0499 0.102417H39.1383H38.5531V8.52253C38.5531 9.94174 38.2605 10.9659 37.6753 11.6243C37.09 12.2827 36.256 12.6119 35.1587 12.6119C32.8982 12.6119 31.7717 11.2658 31.7717 8.52985V0.102417H28.2383V8.66884C28.2383 10.8927 28.8601 12.6411 30.0598 13.8482C31.2596 15.0479 32.9787 15.6698 35.166 15.6698C37.3534 15.6698 39.0286 15.0479 40.2722 13.8482C41.472 12.6485 42.0938 10.9293 42.0938 8.66884V5.46466L42.679 6.12306L50.2213 15.3771H53.1402V0.102417H49.6361Z" fill="#EAEAEA"/>
<path d="M21.0905 0.102417H2.24585C1.00222 0.102417 0 1.11195 0 2.31169V21.1929C0 22.4293 1.00222 23.4388 2.24585 23.4388H21.0978C22.3342 23.4388 23.3437 22.4366 23.3437 21.1929V2.31169C23.3364 1.11195 22.3342 0.102417 21.0905 0.102417ZM21.6611 11.756H11.4487V21.9684H10.9805C10.9805 16.5769 6.62782 12.2242 1.23632 12.2242V11.756H11.4487V1.54357H11.9169C11.9169 6.93508 16.2696 11.2878 21.6611 11.2878V11.756Z" fill="#EAEAEA"/>
</svg>
