<svg width="136" height="19" viewBox="0 0 136 19" fill="none" xmlns="http://www.w3.org/2000/svg">
<path d="M64.2949 0.118408V12.4659H63.0453V2.5879L58.1951 10.8965H57.5793L52.7232 2.6412V12.4659H51.4736V0.118408H52.5514L57.9168 9.27388L63.2289 0.118408H64.2949Z" fill="#353535"/>
<path d="M76.0618 9.16729H69.1804L67.6999 12.4659H66.3438L71.9875 0.118408H73.2725L78.9162 12.4659H77.5423L76.0618 9.16729ZM75.5821 8.10724L72.6211 1.47456L69.6601 8.10724H75.5821Z" fill="#353535"/>
<path d="M89.3978 12.4659L86.573 8.4981C86.2532 8.53363 85.9275 8.55139 85.584 8.55139H82.2677V12.4659H80.9648V0.118408H85.584C87.1593 0.118408 88.397 0.497419 89.2912 1.24952C90.1855 2.00162 90.6296 3.03797 90.6296 4.35267C90.6296 5.31796 90.3868 6.12928 89.8953 6.79847C89.4097 7.46174 88.7109 7.94142 87.8048 8.23753L90.8191 12.4718H89.3978V12.4659ZM88.3555 6.62673C89.001 6.08783 89.3268 5.3298 89.3268 4.35267C89.3268 3.35184 89.001 2.5879 88.3555 2.04899C87.71 1.51601 86.7744 1.2436 85.5485 1.2436H82.2677V7.43805H85.5485C86.7744 7.43805 87.71 7.16564 88.3555 6.62673Z" fill="#353535"/>
<path d="M97.5473 6.66226L95.0245 9.22058V12.4659H93.7217V0.118408H95.0245V7.58018L102.273 0.118408H103.771L98.4238 5.70881L104.139 12.4659H102.587L97.5473 6.66226Z" fill="#353535"/>
<path d="M114.994 11.3348V12.4659H106.265V0.118408H114.733V1.24952H107.573V5.63775H113.957V6.75109H107.573V11.3348H114.994Z" fill="#353535"/>
<path d="M120.46 1.24952H116.119V0.118408H126.104V1.24952H121.763V12.4718H120.46V1.24952Z" fill="#353535"/>
<path d="M128.763 12.1283C127.922 11.8322 127.27 11.4473 126.814 10.9617L127.324 9.95495C127.768 10.3991 128.366 10.7663 129.106 11.0387C129.847 11.317 130.61 11.4532 131.398 11.4532C132.506 11.4532 133.335 11.2519 133.885 10.8433C134.436 10.4346 134.714 9.9135 134.714 9.26207C134.714 8.77054 134.566 8.37376 134.264 8.07766C133.962 7.78156 133.595 7.55652 133.163 7.39663C132.731 7.23673 132.121 7.06499 131.345 6.87549C130.415 6.63861 129.675 6.41357 129.124 6.19445C128.573 5.97534 128.1 5.6437 127.703 5.19955C127.306 4.7554 127.111 4.14543 127.111 3.38148C127.111 2.75967 127.276 2.19115 127.602 1.68186C127.934 1.17256 128.437 0.763943 129.118 0.455997C129.799 0.148051 130.646 0 131.659 0C132.363 0 133.056 0.0947526 133.731 0.29018C134.407 0.485607 134.993 0.752099 135.484 1.09558L135.046 2.13786C134.531 1.79438 133.974 1.53973 133.388 1.36799C132.802 1.19625 132.221 1.11334 131.659 1.11334C130.575 1.11334 129.764 1.32062 129.213 1.74108C128.668 2.16154 128.396 2.69453 128.396 3.3578C128.396 3.84933 128.544 4.2461 128.846 4.54813C129.148 4.85015 129.521 5.07519 129.977 5.23508C130.427 5.39498 131.037 5.56672 131.801 5.75622C132.707 5.98126 133.441 6.20038 133.998 6.41949C134.555 6.63861 135.028 6.96432 135.419 7.40847C135.81 7.8467 136 8.44483 136 9.19693C136 9.81874 135.834 10.3873 135.496 10.8966C135.159 11.4058 134.649 11.8145 133.951 12.1165C133.258 12.4185 132.405 12.5666 131.392 12.5666C130.48 12.5725 129.604 12.4244 128.763 12.1283Z" fill="#353535"/>
<path d="M45.9385 0.0830078H48.7988V12.4482H45.9385V0.0830078Z" fill="#353535"/>
<path d="M40.1823 0.0830078V7.58031L34.0412 0.0830078H31.6842H31.2104V6.89928C31.2104 8.04815 30.9735 8.87724 30.4998 9.41022C30.026 9.9432 29.3509 10.2097 28.4626 10.2097C26.6327 10.2097 25.7207 9.12004 25.7207 6.9052V0.0830078H22.8604V7.01772C22.8604 8.81802 23.3637 10.2334 24.3349 11.2105C25.3062 12.1817 26.6978 12.6851 28.4685 12.6851C30.2392 12.6851 31.5954 12.1817 32.6021 11.2105C33.5733 10.2393 34.0767 8.84763 34.0767 7.01772V4.42386L34.5505 4.95685L40.6561 12.4482H43.019V0.0830078H40.1823Z" fill="#353535"/>
<path d="M17.0732 0.0830078H1.81807C0.811319 0.0830078 0 0.90025 0 1.87146V17.1562C0 18.1571 0.811319 18.9743 1.81807 18.9743H17.0792C18.08 18.9743 18.8972 18.163 18.8972 17.1562V1.87146C18.8913 0.90025 18.08 0.0830078 17.0732 0.0830078ZM17.5352 9.51682H9.26799V17.784H8.88898C8.88898 13.4194 5.36537 9.89583 1.00082 9.89583V9.51682H9.26799V1.24965H9.647C9.647 5.61419 13.1706 9.13781 17.5352 9.13781V9.51682Z" fill="#353535"/>
<path d="M24.1551 15.4386H22.8818V15.1069H25.8132V15.4386H24.54V18.7312H24.1551V15.4386Z" fill="#353535"/>
<path d="M28.8924 18.7312L28.0633 17.5646C27.9686 17.5764 27.8738 17.5823 27.7731 17.5823H26.8019V18.7312H26.417V15.1069H27.7731C28.2351 15.1069 28.5963 15.2195 28.8628 15.4386C29.1234 15.6577 29.2536 15.9656 29.2536 16.3506C29.2536 16.6348 29.1826 16.8717 29.0405 17.0671C28.8983 17.2626 28.6911 17.4047 28.4246 17.4876L29.3129 18.7312H28.8924ZM28.5904 17.0138C28.7799 16.8539 28.8746 16.6348 28.8746 16.3446C28.8746 16.0485 28.7799 15.8235 28.5904 15.6695C28.4009 15.5096 28.1285 15.4326 27.7672 15.4326H26.8019V17.2507H27.7672C28.1225 17.2566 28.4009 17.1737 28.5904 17.0138Z" fill="#353535"/>
<path d="M32.4344 17.76H30.415L29.9827 18.7312H29.5859L31.2441 15.1069H31.6231L33.2813 18.7312H32.8786L32.4344 17.76ZM32.2982 17.4521L31.4277 15.5037L30.5572 17.4521H32.2982Z" fill="#353535"/>
<path d="M33.873 15.1069H35.3476C35.7326 15.1069 36.0701 15.1839 36.3603 15.3379C36.6564 15.4919 36.8814 15.7051 37.0413 15.9775C37.2012 16.2499 37.2841 16.5638 37.2841 16.9191C37.2841 17.2685 37.2012 17.5823 37.0413 17.8607C36.8814 18.1331 36.6505 18.3463 36.3603 18.5003C36.0642 18.6542 35.7266 18.7312 35.3476 18.7312H33.873V15.1069ZM35.3299 18.3996C35.6497 18.3996 35.928 18.3344 36.1649 18.2101C36.4018 18.0857 36.5853 17.9081 36.7156 17.6889C36.8459 17.4639 36.9111 17.2093 36.9111 16.9191C36.9111 16.6289 36.8459 16.3743 36.7156 16.1492C36.5853 15.9242 36.4018 15.7524 36.1649 15.6281C35.928 15.5037 35.6497 15.4386 35.3299 15.4386H34.258V18.3996H35.3299Z" fill="#353535"/>
<path d="M38.1484 15.1069H38.5334V18.7312H38.1484V15.1069Z" fill="#353535"/>
<path d="M42.7439 15.1069V18.7312H42.4301L40.1027 15.788V18.7312H39.7178V15.1069H40.0316L42.3649 18.0502V15.1069H42.7439Z" fill="#353535"/>
<path d="M46.4756 16.9189H46.8428V18.2987C46.6711 18.4468 46.4756 18.5593 46.2447 18.6422C46.0137 18.7192 45.7709 18.7607 45.5163 18.7607C45.155 18.7607 44.8293 18.6837 44.5391 18.5238C44.249 18.3639 44.0239 18.1448 43.8581 17.8664C43.6923 17.5822 43.6094 17.2683 43.6094 16.9189C43.6094 16.5695 43.6923 16.2556 43.8581 15.9714C44.0239 15.693 44.249 15.468 44.5391 15.314C44.8293 15.1541 45.155 15.0771 45.5222 15.0771C45.8005 15.0771 46.0552 15.1186 46.2861 15.2074C46.5171 15.2963 46.7125 15.4265 46.8724 15.5983L46.6355 15.8411C46.3513 15.5568 45.9841 15.4147 45.5459 15.4147C45.2498 15.4147 44.9892 15.4798 44.7523 15.6101C44.5154 15.7404 44.3319 15.9181 44.1957 16.149C44.0594 16.38 43.9943 16.6346 43.9943 16.9189C43.9943 17.2032 44.0594 17.4578 44.1957 17.6828C44.3319 17.9079 44.5154 18.0915 44.7464 18.2218C44.9833 18.352 45.2439 18.4172 45.54 18.4172C45.913 18.4172 46.2269 18.3224 46.4875 18.1388V16.9189H46.4756Z" fill="#353535"/>
<path d="M49.2822 15.1069H49.6672V18.7312H49.2822V15.1069Z" fill="#353535"/>
<path d="M51.0705 18.6304C50.8218 18.5416 50.6323 18.4291 50.4961 18.287L50.6441 17.9909C50.7744 18.1211 50.9521 18.2277 51.1653 18.3106C51.3844 18.3936 51.6094 18.4291 51.8404 18.4291C52.1661 18.4291 52.4089 18.3699 52.5688 18.2514C52.7287 18.133 52.8116 17.979 52.8116 17.7895C52.8116 17.6474 52.7702 17.5289 52.6813 17.446C52.5925 17.3572 52.4859 17.2921 52.3556 17.2447C52.2253 17.1973 52.0477 17.1499 51.8226 17.0907C51.5502 17.0196 51.3311 16.9545 51.1712 16.8894C51.0113 16.8242 50.8692 16.7295 50.7567 16.5992C50.6382 16.4689 50.5849 16.2912 50.5849 16.0662C50.5849 15.8826 50.6323 15.7168 50.7271 15.5687C50.8218 15.4207 50.9699 15.2963 51.1712 15.2075C51.3726 15.1187 51.6213 15.0713 51.9174 15.0713C52.1247 15.0713 52.326 15.1009 52.5274 15.1542C52.7228 15.2134 52.8945 15.2904 53.0426 15.3911L52.9123 15.699C52.7583 15.5984 52.5984 15.5214 52.4267 15.474C52.2549 15.4266 52.0832 15.397 51.9174 15.397C51.5976 15.397 51.3607 15.4562 51.2008 15.5806C51.0409 15.7049 50.958 15.8589 50.958 16.0543C50.958 16.1965 50.9995 16.3149 51.0883 16.4037C51.1771 16.4926 51.2837 16.5577 51.4199 16.6051C51.5502 16.6525 51.7338 16.6999 51.9529 16.7591C52.2194 16.8242 52.4326 16.8894 52.5984 16.9545C52.7642 17.0196 52.9004 17.1144 53.013 17.2447C53.1255 17.375 53.1847 17.5467 53.1847 17.7717C53.1847 17.9553 53.1373 18.1211 53.0366 18.2692C52.936 18.4172 52.7879 18.5357 52.5807 18.6245C52.3793 18.7133 52.1247 18.7548 51.8286 18.7548C51.5739 18.7607 51.3193 18.7193 51.0705 18.6304Z" fill="#353535"/>
<path d="M55.6125 18.6304C55.3638 18.5416 55.1743 18.4291 55.0381 18.287L55.1861 17.9909C55.3164 18.1211 55.4941 18.2277 55.7073 18.3106C55.9264 18.3936 56.1514 18.4291 56.3824 18.4291C56.7081 18.4291 56.9509 18.3699 57.1108 18.2514C57.2707 18.133 57.3536 17.979 57.3536 17.7895C57.3536 17.6474 57.3121 17.5289 57.2233 17.446C57.1345 17.3572 57.0279 17.2921 56.8976 17.2447C56.7673 17.1973 56.5897 17.1499 56.3646 17.0907C56.0922 17.0196 55.8731 16.9545 55.7132 16.8894C55.5533 16.8242 55.4112 16.7295 55.2987 16.5992C55.1861 16.4689 55.1269 16.2912 55.1269 16.0662C55.1269 15.8826 55.1743 15.7168 55.269 15.5687C55.3638 15.4207 55.5118 15.2963 55.7132 15.2075C55.9145 15.1187 56.1633 15.0713 56.4594 15.0713C56.6666 15.0713 56.868 15.1009 57.0693 15.1542C57.2707 15.2134 57.4424 15.2904 57.5846 15.3911L57.4543 15.699C57.3003 15.5984 57.1404 15.5214 56.9687 15.474C56.7969 15.4266 56.6252 15.397 56.4594 15.397C56.1396 15.397 55.9027 15.4562 55.7428 15.5806C55.5829 15.7049 55.5 15.8589 55.5 16.0543C55.5 16.1965 55.5415 16.3149 55.6303 16.4037C55.7191 16.4926 55.8257 16.5577 55.9619 16.6051C56.0922 16.6525 56.2758 16.6999 56.4949 16.7591C56.7614 16.8242 56.9746 16.8894 57.1404 16.9545C57.3062 17.0196 57.4424 17.1144 57.555 17.2447C57.6675 17.375 57.7267 17.5467 57.7267 17.7717C57.7267 17.9553 57.6793 18.1211 57.5786 18.2692C57.478 18.4172 57.3299 18.5357 57.1286 18.6245C56.9272 18.7133 56.6726 18.7548 56.3765 18.7548C56.1159 18.7607 55.8553 18.7193 55.6125 18.6304Z" fill="#353535"/>
<path d="M58.5684 15.1069H58.9533V18.7312H58.5684V15.1069Z" fill="#353535"/>
<path d="M63.8982 15.1069V18.7312H63.531V15.8294L62.1097 18.2693H61.9261L60.5049 15.8472V18.7312H60.1377V15.1069H60.4516L62.0268 17.7955L63.5843 15.1069H63.8982Z" fill="#353535"/>
<path d="M67.522 15.4386C67.7825 15.6577 67.9128 15.9656 67.9128 16.3506C67.9128 16.7355 67.7825 17.0375 67.522 17.2566C67.2614 17.4758 66.9002 17.5883 66.4323 17.5883H65.4611V18.7312H65.0762V15.1069H66.4323C66.8942 15.1069 67.2555 15.2195 67.522 15.4386ZM67.2436 17.0138C67.4331 16.8539 67.5279 16.6348 67.5279 16.3506C67.5279 16.0545 67.4331 15.8294 67.2436 15.6755C67.0541 15.5156 66.7817 15.4386 66.4205 15.4386H65.4552V17.2507H66.4205C66.7817 17.2507 67.0541 17.1737 67.2436 17.0138Z" fill="#353535"/>
<path d="M68.7422 15.1069H69.1271V18.3996H71.1584V18.7312H68.7481V15.1069H68.7422Z" fill="#353535"/>
<path d="M74.3553 18.3996V18.7312H71.791V15.1069H74.2783V15.4386H72.1759V16.7296H74.0473V17.0553H72.1759V18.3996H74.3553Z" fill="#353535"/>
</svg>
