<svg width="12" height="12" viewBox="0 0 12 12" fill="none" xmlns="http://www.w3.org/2000/svg">
<path d="M11.6832 7.98252L10.8514 8.48058L10.9446 9.44667L10.0095 9.70148L9.83896 10.657L8.86979 10.6498L8.44825 11.5239L7.51717 11.255L6.87589 11.9828L6.05174 11.4721L5.23816 11.9995L4.58188 11.2853L3.65646 11.5733L3.21698 10.7082L2.24829 10.7355L2.05829 9.78372L1.11813 9.5481L1.19137 8.58029L0.349522 8.09947L0.680855 7.1873L0 6.49695L0.564839 5.70813L0.0948772 4.85899L0.851191 4.25211L0.627517 3.30769L1.51926 2.92756L1.55835 1.95778L2.51941 1.83271L2.8183 0.909214L3.77739 1.04856L4.31372 0.240044L5.19957 0.633471L5.93376 0L6.68098 0.618207L7.55871 0.206561L8.11175 1.00375L9.06766 0.84471L9.38547 1.7618L10.3487 1.86693L10.4077 2.83572L11.3071 3.19739L11.1028 4.14624L11.8714 4.73737L11.4192 5.59586L12 6.37287L11.3334 7.07725L11.6832 7.98252Z" fill="#AA9261"/>
<path d="M5.16458 8.37284L3.12988 6.33603L3.77313 5.69173L5.14443 7.06454L8.0603 3.95996L8.72297 4.58408L5.16458 8.37284Z" fill="#EAEAEA"/>
</svg>
